<svg width="24" height="24" viewBox="0 0 24 24" fill="none" xmlns="http://www.w3.org/2000/svg">
<path fill-rule="evenodd" clip-rule="evenodd" d="M11.9792 2.25H12C13.3894 2.25 15.463 2.68483 17.2539 3.99463C19.076 5.32732 20.5586 7.53427 20.7488 10.9584L20.709 10.9606C20.8937 11.2635 21 11.6193 21 12V16C21 16.3518 20.9092 16.6823 20.7497 16.9695C20.7517 17.0201 20.7486 17.0716 20.74 17.1234C20.5352 18.3523 19.336 20.827 16.2062 21.7213C15.808 21.8351 15.3928 21.6044 15.279 21.2062C15.1653 20.8079 15.3959 20.3928 15.7942 20.279C17.4055 19.8186 18.3349 18.8393 18.822 18H17C15.8954 18 15 17.1046 15 16V12C15 10.8954 15.8954 10 17 10H19C19.0483 10 19.0962 10.0017 19.1436 10.0051C18.7761 7.63931 17.6498 6.14255 16.3684 5.20537C14.8867 4.12173 13.1502 3.75442 12.0205 3.75004C9.05723 3.92014 7.27015 5.17579 6.20537 6.63164C5.39914 7.73398 4.98943 8.97742 4.83069 10.0071C4.8865 10.0024 4.94297 10 5 10H7C8.10457 10 9 10.8954 9 12V16C9 17.1046 8.10457 18 7 18H5C3.89543 18 3 17.1046 3 16V12C3 11.6357 3.09739 11.2942 3.26756 11H3.25C3.25 9.61062 3.68483 7.537 4.99463 5.74614C6.32732 3.92397 8.53427 2.44138 11.9584 2.25115L11.9792 2.25ZM5 11.5H7C7.27614 11.5 7.5 11.7239 7.5 12V16C7.5 16.2761 7.27614 16.5 7 16.5H5C4.72386 16.5 4.5 16.2761 4.5 16V12C4.5 11.7239 4.72386 11.5 5 11.5ZM17 11.5H19C19.2761 11.5 19.5 11.7239 19.5 12V16C19.5 16.2761 19.2761 16.5 19 16.5H17C16.7239 16.5 16.5 16.2761 16.5 16V12C16.5 11.7239 16.7239 11.5 17 11.5Z" fill="#565F73"/>
</svg>
