<svg width="81" height="81" viewBox="0 0 81 81" fill="none" xmlns="http://www.w3.org/2000/svg">
<path d="M36.6167 61.4667C50.0188 61.4667 60.8833 50.8111 60.8833 37.6667C60.8833 24.5223 50.0188 13.8667 36.6167 13.8667C23.2146 13.8667 12.35 24.5223 12.35 37.6667C12.35 50.8111 23.2146 61.4667 36.6167 61.4667Z" fill="white" stroke="#3E4142" stroke-width="1.66667" stroke-linecap="round" stroke-linejoin="round"/>
<path d="M38.8833 20.0333V23.5167C40.2833 23.75 41.4167 24.2 42.3167 24.9C43.2 25.6 44.05 26.6667 44.85 28.1167L41.3833 30.05C40.3333 28.15 38.9833 27.2 37.3 27.2C36.25 27.2 35.4 27.5 34.7 28.1167C34.0167 28.7333 33.6667 29.5 33.6667 30.4333C33.6667 31.2667 33.95 31.9667 34.5 32.5333C35.05 33.0833 36.15 33.7167 37.8 34.4667C39.2333 35.1167 40.4167 35.7333 41.35 36.3C42.2833 36.8667 42.9833 37.4333 43.4667 37.9667C44.8 39.4167 45.4667 41.15 45.4667 43.2C45.4667 45.25 44.8667 46.9833 43.65 48.5333C42.45 50.0667 40.85 51.0833 38.85 51.6167V55.3H35.7333V51.7333C33.4167 51.35 31.65 50.55 30.4167 49.3333C29.2 48.1167 28.3 46.2333 27.7167 43.6833L31.6167 42.8667C32.15 44.6667 32.8 45.95 33.5667 46.7167C34.3667 47.45 35.45 47.8167 36.7833 47.8167C38.1167 47.8167 39.1833 47.4 40.05 46.55C40.9167 45.7167 41.35 44.65 41.35 43.3333C41.35 42.1667 40.9833 41.2167 40.2667 40.5167C39.9 40.1667 39.35 39.7833 38.6333 39.35C37.9167 38.9167 37 38.45 35.8833 37.9333C33.5833 36.9 32.0833 35.95 31.35 35.0833C30.2 33.8 29.6333 32.25 29.6333 30.45C29.6333 29.6 29.7667 28.8 30.05 28.0667C30.3167 27.3333 30.7167 26.6667 31.2333 26.0667C31.75 25.4667 32.3833 24.95 33.15 24.5167C33.9 24.0833 34.7667 23.7333 35.7333 23.4833V20H38.85L38.8833 20.0333Z" fill="#00ADEE"/>
<path d="M56.6 67.1333C63.255 67.1333 68.65 61.8428 68.65 55.3167C68.65 48.7905 63.255 43.5 56.6 43.5C49.945 43.5 44.55 48.7905 44.55 55.3167C44.55 61.8428 49.945 67.1333 56.6 67.1333Z" fill="#00ADEE" stroke="#3E4142" stroke-width="1.66667" stroke-miterlimit="10"/>
<path d="M54.0667 60.3164L49.4333 60.3664L50.2667 50.3998L53.7667 50.3664L54.0333 51.6664C54.0333 51.6664 54.6167 50.4498 55.8667 50.3998C55.8667 50.3998 57.5667 50.2664 58.1 51.9998C58.1 51.9998 58.9166 50.3664 60.3666 50.2831C60.3666 50.2831 62.5667 49.8998 63.3333 55.1331C63.3333 55.1331 63.9 59.2831 63.7667 60.1831H59.6333L59.6 53.8164C59.6 53.8164 59.0667 52.9164 58.4833 53.6998L57.0333 59.9831C57.0333 59.9831 56.8333 60.4998 56.6166 59.9164L54.9333 53.7164C54.6333 53.0164 54.05 53.0664 54.0333 53.8498L54.0667 60.2998V60.3164Z" fill="white"/>
</svg>
